<?xml version="1.0" encoding="utf-8"?>
<!-- Generator: Adobe Illustrator 19.2.0, SVG Export Plug-In . SVG Version: 6.00 Build 0)  -->
<svg version="1.1" id="Layer_1" xmlns="http://www.w3.org/2000/svg" xmlns:xlink="http://www.w3.org/1999/xlink" x="0px" y="0px"
	 viewBox="0 0 27 32" style="enable-background:new 0 0 27 32;" xml:space="preserve">
<style type="text/css">
	.st0{filter:url(#filter-1);}
</style>
<filter  filterUnits="objectBoundingBox" height="200%" id="filter-1" width="200%" x="-50%" y="-50%">
	<feOffset  dx="0" dy="2" in="SourceAlpha" result="shadowOffsetOuter1"></feOffset>
	<feGaussianBlur  in="shadowOffsetOuter1" result="shadowBlurOuter1" stdDeviation="2"></feGaussianBlur>
	
		<feColorMatrix  in="shadowBlurOuter1" result="shadowMatrixOuter1" type="matrix" values="0 0 0 0 0   0 0 0 0 0   0 0 0 0 0  0 0 0 0.05 0">
		</feColorMatrix>
	<feMerge>
		<feMergeNode  in="shadowMatrixOuter1"></feMergeNode>
		<feMergeNode  in="SourceGraphic"></feMergeNode>
	</feMerge>
</filter>
<title>ic_home</title>
<desc>Created with Sketch.</desc>
<g id="OPt-2">
	<g id="prog2_pro3_Mobile-Portrait_opt2-Copy-2" transform="translate(-10.000000, -15.000000)">
		<g id="nav">
			<g id="Group-6" class="st0">
				<g id="ic_home_1_" transform="translate(14.000000, 17.000000)">
					<g id="Group_1_" transform="translate(9.600000, 12.000000) scale(-1, 1) translate(-9.600000, -12.000000) ">
						<path id="Shape_3_" d="M0.1,8l1,0.8l1.7,1.3C3,8.9,3.7,8,4.6,7.3L1.4,4.8l1-1.3C2.8,3,2.7,2.2,2.1,1.8L-0.3,5
							c-0.4,0.5-0.5,1.1-0.4,1.6C-0.6,7.1-0.4,7.6,0.1,8L0.1,8z"/>
						<path id="Shape_2_" d="M10.3,19.2c-3.6-1.9-6.8-2.4-7.6-1.1c-0.7,1.1,0.5,3.1,2.7,5.1l-2.1,3.4H1.8c-0.7,0-1.2,0.6-1.2,1.2
							h1.9H5l0.8-1.2l1.2-2l0.5-0.8c-0.2-0.3-0.3-0.6-0.3-1c0-1,0.8-1.8,1.8-1.8c0.1,0,0.1,0,0.2,0L10.3,19.2L10.3,19.2z"/>
						<path id="Shape_1_" d="M20.4,7.5c-0.2-0.9-1-1.6-1.9-1.6c-0.3,0-0.5,0.1-0.8,0.2c-0.7,0.3-1.2,1-1.2,1.9v9.6
							c0,0.7-0.5,1.2-1.2,1.2c-0.5,0-0.9-0.3-1.1-0.7c0,0,0-0.1,0-0.1L12.9,15l2.2-7.5c0,0,0,0,0,0c0-0.1,0.1-0.2,0.1-0.3
							c0.8-2.9-0.6-6-3.3-7.3L6.7,1.8C6.1,2,5.7,2.7,5.9,3.4l1.3-0.5C7.8,2.7,8.3,3,8.5,3.5C8.7,4,8.4,4.6,7.9,4.8L6.6,5.3
							c0.2,0.6,0.9,1,1.6,0.7l1.4-0.5c0.1,0.6-0.2,1.2-0.8,1.4L6,7.9c-1.2,0.5-2,1.6-2,3c0,0,0,0.1,0,0.1c0,0,0,0.1,0,0.1
							c0,0,0,0,0,0h-4.3V9.4c0-0.5-0.6-0.9-0.9-1.1l-0.3-0.2v4.1c0,1.1,0.9,2.1,2.1,2.1h4.8c0.4,0,0.8,0.1,1.2,0.1c0,0,0,0-0.1,0
							c0,0,0,0,0.1,0c0,0,0,0,0,0c2.1,0.5,3.8,2.4,4,4.7c0,0,0,0.1,0,0.1c0,0.1,0,0.3,0,0.4c0,1.3-0.4,2.5-1.2,3.4
							c-0.1,0.1-0.1,0.1-0.2,0.2c-0.2,0.2-0.2,0.5-0.2,0.8c0,0.7,0.6,1.4,1.3,1.4c0.3,0,0.5-0.1,0.7-0.2l2.7-1.6
							c0.4,0.2,0.6,0.6,0.6,1.1c0,0.3-0.1,0.6-0.3,0.8l-1.1,1.2h-1.4h0h-0.1c-0.7,0-1.2,0.6-1.2,1.2h2.4h0h1.5
							c0-1.2,0.9-2.1,2.1-2.1v-3.6c-1-0.2-1.7-1-1.7-2.1c0-0.1,0-0.1,0-0.2c0.1,0,0.2,0,0.4,0c0.5,0,0.9-0.1,1.3-0.4
							c0.7-0.4,1.2-1.3,1.2-2.2V7.9c0-0.4,0.4-0.8,0.8-0.8c0.4,0,0.8,0.3,0.8,0.8c-0.5,0.4-0.9,1-0.9,1.7c0,1.2,0.9,2.1,2.1,2.1V7.9
							C20.4,7.8,20.4,7.6,20.4,7.5L20.4,7.5z"/>
					</g>
				</g>
			</g>
		</g>
	</g>
</g>
</svg>
